<svg width="128" height="128" viewBox="0 0 128 128" fill="none" xmlns="http://www.w3.org/2000/svg">
<circle cx="64" cy="64" r="64" fill="#8E24AA"/>
<path d="M49.4033 32.4386C49.4033 31.8863 49.851 31.4386 50.4033 31.4386H61.877C62.4293 31.4386 62.877 31.8863 62.877 32.4386V93.3158C62.877 93.8681 62.4293 94.3158 61.877 94.3158H49.4033V32.4386Z" fill="white"/>
<path d="M65.123 32.4386C65.123 31.8863 65.5708 31.4386 66.123 31.4386H78.5967V93.3158C78.5967 93.8681 78.149 94.3158 77.5967 94.3158H66.123C65.5708 94.3158 65.123 93.8681 65.123 93.3158V32.4386Z" fill="white"/>
<path d="M26.9468 84.0877C26.9468 83.5354 27.3945 83.0877 27.9468 83.0877H49.4029V94.3158H27.9468C27.3945 94.3158 26.9468 93.8681 26.9468 93.3158V84.0877Z" fill="white"/>
<path d="M78.5967 31.4386H102.298C102.851 31.4386 103.298 31.8863 103.298 32.4386V41.6667C103.298 42.219 102.851 42.6667 102.298 42.6667H78.5967V31.4386Z" fill="white"/>
<path d="M78.5967 51.6491H102.298C102.851 51.6491 103.298 52.0968 103.298 52.6491V61.8772C103.298 62.4295 102.851 62.8772 102.298 62.8772H78.5967V51.6491Z" fill="white"/>
<circle cx="35.5" cy="39.5" r="8.5" fill="white"/>
</svg>
