<svg width="180" height="180" viewBox="0 0 180 180" fill="none" xmlns="http://www.w3.org/2000/svg">
<circle cx="90" cy="90" r="90" fill="#8E24AA"/>
<path d="M69.4731 45.2105C69.4731 44.6582 69.9209 44.2105 70.4731 44.2105H87.4205C87.9728 44.2105 88.4205 44.6582 88.4205 45.2105V131.632C88.4205 132.184 87.9728 132.632 87.4205 132.632H69.4731V45.2105Z" fill="white"/>
<path d="M91.5791 45.2105C91.5791 44.6582 92.0268 44.2105 92.5791 44.2105H110.526V131.632C110.526 132.184 110.079 132.632 109.526 132.632H92.5791C92.0268 132.632 91.5791 132.184 91.5791 131.632V45.2105Z" fill="white"/>
<path d="M37.8926 117.842C37.8926 117.29 38.3403 116.842 38.8926 116.842H69.4715V132.632H38.8926C38.3403 132.632 37.8926 132.184 37.8926 131.632V117.842Z" fill="white"/>
<path d="M110.527 44.2105H144.264C144.816 44.2105 145.264 44.6582 145.264 45.2105V59C145.264 59.5523 144.816 60 144.264 60H110.527V44.2105Z" fill="white"/>
<path d="M110.527 72.6316H144.264C144.816 72.6316 145.264 73.0793 145.264 73.6316V87.421C145.264 87.9733 144.816 88.421 144.264 88.421H110.527V72.6316Z" fill="white"/>
<circle cx="49.9219" cy="55.5469" r="11.9531" fill="white"/>
</svg>
