<svg width="192" height="192" viewBox="0 0 192 192" fill="none" xmlns="http://www.w3.org/2000/svg">
<circle cx="96" cy="96" r="96" fill="#8E24AA"/>
<path d="M74.1069 48.1579C74.1069 47.6056 74.5546 47.1579 75.1069 47.1579H93.3175C93.8697 47.1579 94.3175 47.6056 94.3175 48.1579V140.474C94.3175 141.026 93.8697 141.474 93.3175 141.474H74.1069V48.1579Z" fill="white"/>
<path d="M97.6826 48.1579C97.6826 47.6056 98.1303 47.1579 98.6826 47.1579H117.893V140.474C117.893 141.026 117.445 141.474 116.893 141.474H98.6826C98.1303 141.474 97.6826 141.026 97.6826 140.474V48.1579Z" fill="white"/>
<path d="M40.4209 125.632C40.4209 125.079 40.8686 124.632 41.4209 124.632H74.1051V141.474H41.4209C40.8686 141.474 40.4209 141.026 40.4209 140.474V125.632Z" fill="white"/>
<path d="M117.893 47.1579H153.946C154.498 47.1579 154.946 47.6056 154.946 48.1579V63C154.946 63.5523 154.498 64 153.946 64H117.893V47.1579Z" fill="white"/>
<path d="M117.893 77.4737H153.946C154.498 77.4737 154.946 77.9214 154.946 78.4737V93.3158C154.946 93.868 154.498 94.3158 153.946 94.3158H117.893V77.4737Z" fill="white"/>
<circle cx="53.25" cy="59.25" r="12.75" fill="white"/>
</svg>
