<svg width="512" height="373" viewBox="0 0 512 373" fill="none" xmlns="http://www.w3.org/2000/svg">
<circle cx="256" cy="256" r="256" fill="#8E24AA"/>
<path d="M197.619 126.754C197.619 126.202 198.066 125.754 198.619 125.754H250.513C251.066 125.754 251.513 126.202 251.513 126.754V376.263C251.513 376.815 251.066 377.263 250.513 377.263H197.619V126.754Z" fill="white"/>
<path d="M260.487 126.754C260.487 126.202 260.935 125.754 261.487 125.754H314.382V376.263C314.382 376.815 313.934 377.263 313.382 377.263H261.487C260.935 377.263 260.487 376.815 260.487 376.263V126.754Z" fill="white"/>
<path d="M107.789 333.351C107.789 332.799 108.237 332.351 108.789 332.351H197.614V377.263H108.789C108.237 377.263 107.789 376.815 107.789 376.263V333.351Z" fill="white"/>
<path d="M314.381 125.754H412.188C412.741 125.754 413.188 126.202 413.188 126.754V169.667C413.188 170.219 412.741 170.667 412.188 170.667H314.381V125.754Z" fill="white"/>
<path d="M314.381 206.596H412.188C412.741 206.596 413.188 207.044 413.188 207.596V250.509C413.188 251.061 412.741 251.509 412.188 251.509H314.381V206.596Z" fill="white"/>
<circle cx="142" cy="158" r="34" fill="white"/>
</svg>
