<svg width="57" height="57" viewBox="0 0 57 57" fill="none" xmlns="http://www.w3.org/2000/svg">
<circle cx="28.5" cy="28.5" r="28.5" fill="#8E24AA"/>
<path d="M22 15C22 14.4477 22.4477 14 23 14H27C27.5523 14 28 14.4477 28 15V41C28 41.5523 27.5523 42 27 42H22V15Z" fill="white"/>
<path d="M29 15C29 14.4477 29.4477 14 30 14H35V41C35 41.5523 34.5523 42 34 42H30C29.4477 42 29 41.5523 29 41V15Z" fill="white"/>
<path d="M12 38C12 37.4477 12.4477 37 13 37H22V42H13C12.4477 42 12 41.5523 12 41V38Z" fill="white"/>
<path d="M35 14H45C45.5523 14 46 14.4477 46 15V18C46 18.5523 45.5523 19 45 19H35V14Z" fill="white"/>
<path d="M35 23H45C45.5523 23 46 23.4477 46 24V27C46 27.5523 45.5523 28 45 28H35V23Z" fill="white"/>
</svg>
