<svg width="60" height="60" viewBox="0 0 60 60" fill="none" xmlns="http://www.w3.org/2000/svg">
<circle cx="30" cy="30" r="30" fill="#8E24AA"/>
<path d="M23.1577 15.7368C23.1577 15.1846 23.6054 14.7368 24.1577 14.7368H28.4735C29.0258 14.7368 29.4735 15.1846 29.4735 15.7368V43.2105C29.4735 43.7628 29.0258 44.2105 28.4735 44.2105H23.1577V15.7368Z" fill="white"/>
<path d="M30.5264 15.7368C30.5264 15.1846 30.9741 14.7368 31.5264 14.7368H36.8422V43.2105C36.8422 43.7628 36.3944 44.2105 35.8422 44.2105H31.5264C30.9741 44.2105 30.5264 43.7628 30.5264 43.2105V15.7368Z" fill="white"/>
<path d="M12.6309 39.9474C12.6309 39.3951 13.0786 38.9474 13.6309 38.9474H23.1572V44.2105H13.6309C13.0786 44.2105 12.6309 43.7628 12.6309 43.2105V39.9474Z" fill="white"/>
<path d="M36.8423 14.7368H47.4212C47.9735 14.7368 48.4212 15.1846 48.4212 15.7368V19C48.4212 19.5523 47.9735 20 47.4212 20H36.8423V14.7368Z" fill="white"/>
<path d="M36.8423 24.2105H47.4212C47.9735 24.2105 48.4212 24.6582 48.4212 25.2105V28.4737C48.4212 29.026 47.9735 29.4737 47.4212 29.4737H36.8423V24.2105Z" fill="white"/>
<circle cx="16.6406" cy="18.5156" r="3.98438" fill="white"/>
</svg>
