<svg width="64" height="64" viewBox="0 0 64 64" fill="none" xmlns="http://www.w3.org/2000/svg">
<circle cx="32" cy="32" r="32" fill="#8E24AA"/>
<path d="M24.7017 16.7193C24.7017 16.167 25.1494 15.7193 25.7017 15.7193H30.4385C30.9908 15.7193 31.4385 16.167 31.4385 16.7193V46.1579C31.4385 46.7102 30.9908 47.1579 30.4385 47.1579H24.7017V16.7193Z" fill="white"/>
<path d="M32.5615 16.7193C32.5615 16.167 33.0092 15.7193 33.5615 15.7193H39.2984V46.1579C39.2984 46.7102 38.8507 47.1579 38.2984 47.1579H33.5615C33.0092 47.1579 32.5615 46.7102 32.5615 46.1579V16.7193Z" fill="white"/>
<path d="M13.4731 42.5439C13.4731 41.9916 13.9209 41.5439 14.4731 41.5439H24.7012V47.1579H14.4731C13.9209 47.1579 13.4731 46.7102 13.4731 46.1579V42.5439Z" fill="white"/>
<path d="M39.2983 15.7193H50.6492C51.2015 15.7193 51.6492 16.167 51.6492 16.7193V20.3333C51.6492 20.8856 51.2015 21.3333 50.6492 21.3333H39.2983V15.7193Z" fill="white"/>
<path d="M39.2983 25.8246H50.6492C51.2015 25.8246 51.6492 26.2723 51.6492 26.8246V30.4386C51.6492 30.9909 51.2015 31.4386 50.6492 31.4386H39.2983V25.8246Z" fill="white"/>
<circle cx="17.75" cy="19.75" r="4.25" fill="white"/>
</svg>
