<svg width="192" height="192" viewBox="0 0 192 192" fill="none" xmlns="http://www.w3.org/2000/svg">
<circle cx="96" cy="96" r="96" fill="#8E24AA"/>
<path d="M74.105 48.1579C74.105 47.6056 74.5527 47.1579 75.105 47.1579H93.3155C93.8678 47.1579 94.3155 47.6056 94.3155 48.1579V140.474C94.3155 141.026 93.8678 141.474 93.3155 141.474H74.105V48.1579Z" fill="white"/>
<path d="M97.6846 48.1579C97.6846 47.6056 98.1323 47.1579 98.6846 47.1579H117.895V140.474C117.895 141.026 117.447 141.474 116.895 141.474H98.6846C98.1323 141.474 97.6846 141.026 97.6846 140.474V48.1579Z" fill="white"/>
<path d="M40.4194 125.632C40.4194 125.079 40.8671 124.632 41.4194 124.632H74.1036V141.474H41.4194C40.8671 141.474 40.4194 141.026 40.4194 140.474V125.632Z" fill="white"/>
<path d="M117.895 47.1579H153.948C154.5 47.1579 154.948 47.6056 154.948 48.1579V63C154.948 63.5523 154.5 64 153.948 64H117.895V47.1579Z" fill="white"/>
<path d="M117.895 77.4737H153.948C154.5 77.4737 154.948 77.9214 154.948 78.4737V93.3158C154.948 93.8681 154.5 94.3158 153.948 94.3158H117.895V77.4737Z" fill="white"/>
<circle cx="53.25" cy="59.25" r="12.75" fill="white"/>
</svg>
