<?xml version="1.0" encoding="utf-8"?>
<!-- Generator: Adobe Illustrator 24.0.0, SVG Export Plug-In . SVG Version: 6.00 Build 0)  -->
<svg version="1.1" id="Layer_1" xmlns="http://www.w3.org/2000/svg" xmlns:xlink="http://www.w3.org/1999/xlink" x="0px" y="0px"
	 viewBox="0 0 13 28" style="enable-background:new 0 0 13 28;" xml:space="preserve">
<style type="text/css">
	.st0{fill:#555555;}
</style>
<path class="st0" d="M6.5,28c-0.48,0-0.87-0.39-0.87-0.87v-2.88H0.87C0.39,24.25,0,23.86,0,23.38s0.39-0.87,0.87-0.87h6.56
	c2.1,0,3.81-1.71,3.81-3.81c0-2.1-1.71-3.81-3.81-3.81H5.56C2.49,14.87,0,12.38,0,9.31c0-2.73,2.05-5.09,4.77-5.48l0.86-0.12V0.87
	C5.62,0.39,6.02,0,6.5,0c0.48,0,0.88,0.39,0.88,0.87v2.88h4.75c0.48,0,0.87,0.39,0.87,0.87S12.61,5.5,12.12,5.5H5.56
	c-2.1,0-3.81,1.71-3.81,3.81s1.71,3.81,3.81,3.81h1.88c3.07,0,5.56,2.5,5.56,5.56c0,2.73-2.05,5.08-4.77,5.48l-0.86,0.12v2.83
	C7.37,27.61,6.98,28,6.5,28z"/>
</svg>
