<?xml version="1.0" encoding="utf-8"?>
<!-- Generator: Adobe Illustrator 24.0.0, SVG Export Plug-In . SVG Version: 6.00 Build 0)  -->
<svg version="1.1" id="Layer_1" xmlns="http://www.w3.org/2000/svg" xmlns:xlink="http://www.w3.org/1999/xlink" x="0px" y="0px"
	 viewBox="0 0 16 11.2" style="enable-background:new 0 0 16 11.2;" xml:space="preserve">
<style type="text/css">
	.st0{fill:#FFFFFF;}
	.st1{fill:#16B5A4;}
	.st2{opacity:0.4;fill:#A2CE70;}
	.st3{fill:#A2CE70;}
	.st4{opacity:0.4;fill:#FAA61A;}
	.st5{fill:#FAA61A;}
	.st6{opacity:0.4;fill:#16B5A4;}
	.st7{opacity:0.4;fill:#546BB3;}
	.st8{fill:#546BB3;}
	.st9{opacity:0.4;fill:#0DAABF;}
	.st10{fill:#0DAABF;}
</style>
<g>
	<path class="st4" d="M12.8,4.8c-1.77,0-3.2,1.43-3.2,3.2s1.43,3.2,3.2,3.2S16,9.76,16,8S14.57,4.8,12.8,4.8z M14.4,8.4
		c0,0.07-0.06,0.13-0.13,0.13l0,0h-0.93v0.93c0,0.07-0.06,0.13-0.13,0.13h-0.8c-0.07,0-0.13-0.06-0.13-0.13V8.53h-0.93
		c-0.07,0-0.13-0.06-0.13-0.13v0V7.6c0-0.07,0.06-0.13,0.13-0.13h0.93V6.53c0-0.07,0.06-0.13,0.13-0.13l0,0h0.8
		c0.07,0,0.13,0.06,0.13,0.13l0,0v0.93h0.93c0.07,0,0.13,0.06,0.13,0.13V8.4z"/>
	<path class="st5" d="M8.8,8c0-0.48,0.1-0.93,0.25-1.35C8.71,6.74,8.36,6.79,8,6.8c-0.62,0-1.19-0.15-1.71-0.4H6.08
		C4.49,6.4,3.2,7.69,3.2,9.28V10c0,0.66,0.54,1.2,1.2,1.2h6.03C9.44,10.47,8.8,9.31,8.8,8z M2.4,4.8C3.28,4.8,4,4.08,4,3.2
		S3.28,1.6,2.4,1.6S0.8,2.31,0.8,3.2S1.52,4.8,2.4,4.8z M4.33,6.06C4.03,5.76,3.62,5.6,3.2,5.6H1.6C0.72,5.6,0,6.31,0,7.2V8
		c0,0.44,0.36,0.8,0.8,0.8h1.65C2.6,7.64,3.3,6.62,4.33,6.06z M8,5.6L8,5.6c1.55,0,2.8-1.25,2.8-2.8C10.8,1.25,9.54,0,8,0
		S5.2,1.25,5.2,2.8C5.2,4.34,6.45,5.6,8,5.6z"/>
</g>
</svg>
