<?xml version="1.0" encoding="utf-8"?>
<!-- Generator: Adobe Illustrator 24.0.0, SVG Export Plug-In . SVG Version: 6.00 Build 0)  -->
<svg version="1.1" id="Layer_1" xmlns="http://www.w3.org/2000/svg" xmlns:xlink="http://www.w3.org/1999/xlink" x="0px" y="0px"
	 viewBox="0 0 25.46 24" style="enable-background:new 0 0 25.46 24;" xml:space="preserve">
<style type="text/css">
	.st0{fill:#FFFFFF;}
	.st1{fill:#16B5A4;}
	.st2{opacity:0.4;fill:#A2CE70;}
	.st3{fill:#A2CE70;}
	.st4{opacity:0.4;fill:#FAA61A;}
	.st5{fill:#FAA61A;}
	.st6{opacity:0.4;fill:#16B5A4;}
	.st7{opacity:0.4;fill:#546BB3;}
	.st8{fill:#546BB3;}
	.st9{opacity:0.4;fill:#0DAABF;}
	.st10{fill:#0DAABF;}
</style>
<g>
	<path class="st0" d="M14.4,7.06V4.8c-0.01-1.06-0.86-1.91-1.92-1.92c-1.06,0-1.92,0.86-1.92,1.92v2.26
		C11.8,6.61,13.16,6.61,14.4,7.06z"/>
	<path class="st0" d="M12.48,23.04c1.59,0,2.88-1.29,2.88-2.88H9.6C9.6,21.75,10.89,23.04,12.48,23.04z"/>
	<path class="st0" d="M15.36,20.16h4.8l-1.28-1.91c-0.42-0.63-0.65-1.37-0.65-2.13v-3.64c0-2.44-1.54-4.61-3.84-5.43
		c-1.24-0.45-2.6-0.45-3.84,0c-2.3,0.81-3.84,2.99-3.84,5.43v3.64c0,0.76-0.22,1.5-0.65,2.13L4.8,20.16H15.36z"/>
	<g>
		<path class="st1" d="M7.68,0.96C7.68,0.43,7.25,0,6.72,0C3.01,0,0,3.01,0,6.72c0,0.53,0.43,0.96,0.96,0.96s0.96-0.43,0.96-0.96
			c0-2.65,2.15-4.8,4.8-4.8C7.25,1.92,7.68,1.49,7.68,0.96z"/>
		<path class="st1" d="M4.8,7.68c0.53,0,0.96-0.43,0.96-0.96s0.43-0.96,0.96-0.96S7.68,5.33,7.68,4.8S7.25,3.84,6.72,3.84
			c-1.59,0-2.88,1.29-2.88,2.88C3.84,7.25,4.27,7.68,4.8,7.68z"/>
	</g>
	<g>
		<path class="st1" d="M18.74,1.92c2.65,0,4.8,2.15,4.8,4.8c0,0.53,0.43,0.96,0.96,0.96c0.53,0,0.96-0.43,0.96-0.96
			c0-3.71-3.01-6.72-6.72-6.72c-0.53,0-0.96,0.43-0.96,0.96S18.21,1.92,18.74,1.92z"/>
		<path class="st1" d="M21.62,6.72c0-1.59-1.29-2.88-2.88-2.88c-0.53,0-0.96,0.43-0.96,0.96s0.43,0.96,0.96,0.96
			c0.53,0,0.96,0.43,0.96,0.96s0.43,0.96,0.96,0.96C21.19,7.68,21.62,7.25,21.62,6.72z"/>
	</g>
	<path class="st1" d="M21.01,20.61c0.17-0.31,0.15-0.69-0.05-0.99l-1.28-1.91c-0.32-0.47-0.48-1.03-0.48-1.6v-3.64
		c0-2.59-1.5-4.95-3.84-6.06V4.8c-0.01-1.59-1.29-2.87-2.88-2.88c-1.59,0-2.88,1.29-2.88,2.88v1.62c-2.34,1.11-3.84,3.47-3.84,6.06
		v3.64c0,0.57-0.17,1.12-0.48,1.6l-1.28,1.91c-0.2,0.29-0.21,0.67-0.05,0.98c0.17,0.31,0.49,0.51,0.84,0.51h3.98
		c0.43,1.69,1.96,2.88,3.7,2.88s3.27-1.19,3.7-2.88h3.98C20.51,21.12,20.84,20.93,21.01,20.61z M11.52,4.8
		c0-0.53,0.43-0.96,0.96-0.96c0.26,0,0.51,0.11,0.68,0.29c0.18,0.18,0.28,0.42,0.28,0.67v1.04c-0.64-0.1-1.28-0.1-1.92,0V4.8z
		 M12.48,22.08c-0.68,0-1.31-0.37-1.65-0.96h3.31C13.79,21.71,13.16,22.08,12.48,22.08z M6.59,19.2l0.28-0.42
		c0.53-0.79,0.81-1.72,0.81-2.66v-3.64c0-2.65,2.15-4.8,4.8-4.8s4.8,2.15,4.8,4.8v3.64c0,0.95,0.28,1.87,0.81,2.66l0.28,0.42H6.59z"
		/>
</g>
</svg>
