<?xml version="1.0" encoding="utf-8"?>
<!-- Generator: Adobe Illustrator 24.0.0, SVG Export Plug-In . SVG Version: 6.00 Build 0)  -->
<svg version="1.1" id="Layer_1" xmlns="http://www.w3.org/2000/svg" xmlns:xlink="http://www.w3.org/1999/xlink" x="0px" y="0px"
	 viewBox="0 0 15 11.25" style="enable-background:new 0 0 15 11.25;" xml:space="preserve">
<style type="text/css">
	.st0{fill:#FFFFFF;}
	.st1{fill:#16B5A4;}
	.st2{opacity:0.4;fill:#A2CE70;}
	.st3{fill:#A2CE70;}
	.st4{opacity:0.4;fill:#FAA61A;}
	.st5{fill:#FAA61A;}
	.st6{opacity:0.4;fill:#16B5A4;}
	.st7{opacity:0.4;fill:#546BB3;}
	.st8{fill:#546BB3;}
	.st9{opacity:0.4;fill:#0DAABF;}
	.st10{fill:#0DAABF;}
</style>
<g>
	<path class="st2" d="M15,2.81v5.62c0,1.55-1.26,2.81-2.81,2.81H9.73c-0.19,0-0.35-0.16-0.35-0.35V9.73c0-0.19,0.16-0.35,0.35-0.35
		h2.46c0.52,0,0.94-0.42,0.94-0.94V2.81c0-0.52-0.42-0.94-0.94-0.94H9.73c-0.19,0-0.35-0.16-0.35-0.35l0,0V0.35
		C9.38,0.16,9.53,0,9.73,0h2.46C13.74,0,15,1.26,15,2.81z"/>
	<path class="st3" d="M10.81,6.12l-4.92,4.92c-0.44,0.44-1.2,0.13-1.2-0.5V7.74H0.7C0.32,7.74,0,7.42,0,7.04c0,0,0,0,0,0V4.22
		c0-0.39,0.31-0.7,0.7-0.7c0,0,0,0,0,0h3.98V0.7c0-0.63,0.76-0.94,1.2-0.5l4.92,4.92C11.08,5.4,11.08,5.85,10.81,6.12z"/>
</g>
</svg>
