<?xml version="1.0" encoding="utf-8"?>
<!-- Generator: Adobe Illustrator 24.0.0, SVG Export Plug-In . SVG Version: 6.00 Build 0)  -->
<svg version="1.1" id="Layer_1" xmlns="http://www.w3.org/2000/svg" xmlns:xlink="http://www.w3.org/1999/xlink" x="0px" y="0px"
	 viewBox="0 0 14 9.33" style="enable-background:new 0 0 14 9.33;" xml:space="preserve">
<style type="text/css">
	.st0{fill:#FFFFFF;}
	.st1{fill:#16B5A4;}
	.st2{opacity:0.4;fill:#A2CE70;}
	.st3{fill:#A2CE70;}
	.st4{opacity:0.4;fill:#FAA61A;}
	.st5{fill:#FAA61A;}
	.st6{opacity:0.4;fill:#16B5A4;}
	.st7{opacity:0.4;fill:#546BB3;}
	.st8{fill:#546BB3;}
	.st9{opacity:0.4;fill:#0DAABF;}
	.st10{fill:#0DAABF;}
</style>
<g>
	<path class="st7" d="M13.92,4.31C12.6,1.74,9.99,0,7,0S1.4,1.74,0.08,4.31c-0.11,0.22-0.11,0.49,0,0.71C1.4,7.59,4.01,9.33,7,9.33
		s5.6-1.74,6.92-4.31C14.03,4.8,14.03,4.53,13.92,4.31z M7,8.17L7,8.17c-1.94,0-3.5-1.57-3.5-3.5s1.57-3.5,3.5-3.5
		c1.93,0,3.5,1.57,3.5,3.5C10.5,6.6,8.93,8.17,7,8.17z"/>
	<path class="st8" d="M9.25,5.27C8.92,6.51,7.64,7.25,6.4,6.92C5.16,6.58,4.42,5.31,4.76,4.06c0,0,0-0.01,0-0.01
		C5.28,4.43,6,4.32,6.38,3.8c0.3-0.41,0.3-0.97,0-1.38C7.61,2.07,8.9,2.79,9.25,4.02C9.36,4.43,9.37,4.86,9.25,5.27L9.25,5.27z"/>
</g>
</svg>
