<?xml version="1.0" encoding="utf-8"?>
<!-- Generator: Adobe Illustrator 24.0.0, SVG Export Plug-In . SVG Version: 6.00 Build 0)  -->
<svg version="1.1" id="Layer_1" xmlns="http://www.w3.org/2000/svg" xmlns:xlink="http://www.w3.org/1999/xlink" x="0px" y="0px"
	 viewBox="0 0 12 16" style="enable-background:new 0 0 12 16;" xml:space="preserve">
<style type="text/css">
	.st0{fill:#FFFFFF;}
	.st1{fill:#16B5A4;}
	.st2{opacity:0.4;fill:#A2CE70;}
	.st3{fill:#A2CE70;}
	.st4{opacity:0.4;fill:#FAA61A;}
	.st5{fill:#FAA61A;}
	.st6{opacity:0.4;fill:#16B5A4;}
	.st7{opacity:0.4;fill:#546BB3;}
	.st8{fill:#546BB3;}
	.st9{opacity:0.4;fill:#0DAABF;}
	.st10{fill:#0DAABF;}
</style>
<g>
	<path class="st6" d="M12,1.5V16l-6-3.5L0,16V1.5C0,0.67,0.67,0,1.5,0h1v10.19c0,0.28,0.22,0.5,0.5,0.5c0.08,0,0.15-0.02,0.22-0.05
		L6,9.25l2.78,1.39c0.25,0.12,0.55,0.02,0.67-0.22c0.03-0.07,0.05-0.15,0.05-0.22V0h1C11.33,0,12,0.67,12,1.5z"/>
	<path class="st1" d="M9.5,0v10.19c0,0.28-0.22,0.5-0.5,0.5c-0.08,0-0.15-0.02-0.22-0.05L6,9.25l-2.78,1.39
		c-0.25,0.12-0.55,0.02-0.67-0.22c-0.03-0.07-0.05-0.15-0.05-0.22V0H9.5z"/>
</g>
</svg>
