<?xml version="1.0" encoding="utf-8"?>
<!-- Generator: Adobe Illustrator 24.0.0, SVG Export Plug-In . SVG Version: 6.00 Build 0)  -->
<svg version="1.1" id="Layer_1" xmlns="http://www.w3.org/2000/svg" xmlns:xlink="http://www.w3.org/1999/xlink" x="0px" y="0px"
	 viewBox="0 0 15 10.5" style="enable-background:new 0 0 15 10.5;" xml:space="preserve">
<style type="text/css">
	.st0{fill:#FFFFFF;}
	.st1{fill:#16B5A4;}
	.st2{opacity:0.4;fill:#A2CE70;}
	.st3{fill:#A2CE70;}
	.st4{opacity:0.4;fill:#FAA61A;}
	.st5{fill:#FAA61A;}
	.st6{opacity:0.4;fill:#16B5A4;}
	.st7{opacity:0.4;fill:#546BB3;}
	.st8{fill:#546BB3;}
	.st9{opacity:0.4;fill:#0DAABF;}
	.st10{fill:#0DAABF;}
</style>
<g>
	<path class="st9" d="M12.6,4.56c0.45-1.16-0.13-2.46-1.29-2.91c-0.26-0.1-0.53-0.15-0.81-0.15c-0.44,0-0.88,0.13-1.25,0.38
		C8.22,0.09,5.93-0.53,4.13,0.5C2.97,1.17,2.25,2.41,2.25,3.75c0,0.06,0,0.13,0,0.19C0.5,4.56-0.43,6.48,0.19,8.24
		c0.47,1.35,1.75,2.26,3.19,2.26H12c1.66,0,3-1.34,3-3C15,6.07,14,4.85,12.6,4.56z M9.49,6.64L7.02,9.11
		c-0.15,0.15-0.38,0.15-0.53,0L4.02,6.64C3.78,6.4,3.95,6,4.28,6h1.53V3.38C5.82,3.17,5.98,3,6.19,3h1.12
		c0.21,0,0.37,0.17,0.37,0.37V6h1.53C9.56,6,9.72,6.4,9.49,6.64z"/>
	<path class="st10" d="M9.49,6.64L7.02,9.11c-0.15,0.15-0.38,0.15-0.53,0L4.02,6.64C3.78,6.4,3.95,6,4.28,6h1.53V3.38
		C5.82,3.17,5.98,3,6.19,3h1.12c0.21,0,0.37,0.17,0.37,0.37V6h1.53C9.56,6,9.72,6.4,9.49,6.64L9.49,6.64z"/>
</g>
</svg>
