<?xml version="1.0" encoding="utf-8"?>
<!-- Generator: Adobe Illustrator 23.0.0, SVG Export Plug-In . SVG Version: 6.00 Build 0)  -->
<svg version="1.1" id="Layer_1" xmlns="http://www.w3.org/2000/svg" xmlns:xlink="http://www.w3.org/1999/xlink" x="0px" y="0px"
	 viewBox="0 0 16 16" style="enable-background:new 0 0 16 16;" xml:space="preserve">
<style type="text/css">
	.st0{fill:#16B5A4;}
	.st1{fill:#FFFFFF;}
</style>
<g>
	<circle class="st0" cx="8" cy="8" r="8"/>
	<g>
		<path class="st1" d="M4.8,12.9c-0.1,0-0.2,0-0.3,0c-0.9-0.2-1.5-1.1-1.4-2c0-0.3,1.2-6.5,7.8-7.8c0.9-0.2,1.8,0.4,2,1.3
			c0.2,0.9-0.4,1.8-1.3,2c-4.4,0.9-5.1,5-5.1,5.1C6.3,12.4,5.6,12.9,4.8,12.9z"/>
		<path class="st1" d="M4.8,12.9c-0.1,0-0.2,0-0.3,0c-0.9-0.2-1.5-1.1-1.4-2c0-0.3,1.2-6.5,7.8-7.8c0.9-0.2,1.8,0.4,2,1.3
			c0.2,0.9-0.4,1.8-1.3,2c-4.4,0.9-5.1,5-5.1,5.1C6.3,12.4,5.6,12.9,4.8,12.9z"/>
		<path class="st1" d="M3.3,8.1c0.5-1,1.3-2.2,2.5-3.3c0.4-0.4,0.3-1.1-0.2-1.5C5.3,3.1,4.9,3,4.5,3.1C3.7,3.2,3.1,4,3.1,4.9v3.1
			C3.1,8.1,3.2,8.1,3.3,8.1z"/>
		<path class="st1" d="M10.7,7.8c-0.2-0.1-0.4-0.2-0.7,0c-0.8,0.4-1.4,1-1.9,1.6c-0.1,0.2-0.1,0.5,0.1,0.7c0.6,0.6,1.1,1,1.3,1.5
			c0.4,1.2,1.2,1.3,1.8,1.3c0.6,0,2-0.8,1.5-2.3C12.3,9.3,11.2,8.3,10.7,7.8z"/>
	</g>
</g>
</svg>
